HIERARCHY
ROOT pelvis
{
	OFFSET 0.000000 0.676533 -0.000000
	CHANNELS 6 Xposition Yposition Zposition Xrotation Yrotation Zrotation
	JOINT spine
	{
		OFFSET 0.000000 0.000000 0.000000
		CHANNELS 6 Xposition Yposition Zposition Xrotation Yrotation Zrotation
		JOINT spine.001
		{
			OFFSET 0.000000 0.240098 0.012583
			CHANNELS 3 Xrotation Yrotation Zrotation
			JOINT neck
			{
				OFFSET 0.000000 0.238635 -0.029301
				CHANNELS 6 Xposition Yposition Zposition Xrotation Yrotation Zrotation
				JOINT face
				{
					OFFSET 0.000000 0.178174 -0.003110
					CHANNELS 6 Xposition Yposition Zposition Xrotation Yrotation Zrotation
					End Site
					{
						OFFSET 0.000000 -0.007061 0.022528
					}
				}
			}
			JOINT shoulder.L
			{
				OFFSET 0.000000 0.238635 -0.029301
				CHANNELS 6 Xposition Yposition Zposition Yrotation Xrotation Zrotation
				JOINT upper_arm.L
				{
					OFFSET 0.144247 0.000000 0.000000
					CHANNELS 6 Xposition Yposition Zposition Xrotation Yrotation Zrotation
					JOINT forearm.L
					{
						OFFSET 0.241736 0.000864 -0.000104
						CHANNELS 6 Xposition Yposition Zposition Xrotation Yrotation Zrotation
						End Site
						{
							OFFSET 0.220586 -0.001191 0.003755
						}
					}
				}
			}
			JOINT shoulder.R
			{
				OFFSET 0.000000 0.238635 -0.029301
				CHANNELS 6 Xposition Yposition Zposition Yrotation Xrotation Zrotation
				JOINT upper_arm.R
				{
					OFFSET -0.144247 0.000000 0.000000
					CHANNELS 6 Xposition Yposition Zposition Xrotation Yrotation Zrotation
					JOINT forearm.R
					{
						OFFSET -0.240681 0.000864 -0.000104
						CHANNELS 6 Xposition Yposition Zposition Xrotation Yrotation Zrotation
						End Site
						{
							OFFSET -0.216173 -0.001191 0.003678
						}
					}
				}
			}
		}
	}
	JOINT pelvis.L
	{
		OFFSET 0.000000 0.000000 0.000000
		CHANNELS 6 Xposition Yposition Zposition Yrotation Xrotation Zrotation
		End Site
		{
			OFFSET 0.090690 0.000000 0.000000
		}
	}
	JOINT pelvis.R
	{
		OFFSET 0.000000 0.000000 0.000000
		CHANNELS 6 Xposition Yposition Zposition Yrotation Xrotation Zrotation
		End Site
		{
			OFFSET -0.090690 0.000000 0.000000
		}
	}
	JOINT thigh.L
	{
		OFFSET 0.090690 0.000000 0.000000
		CHANNELS 6 Xposition Yposition Zposition Xrotation Yrotation Zrotation
		JOINT shin.L
		{
			OFFSET 0.016922 -0.322884 0.000000
			CHANNELS 6 Xposition Yposition Zposition Xrotation Yrotation Zrotation
			JOINT foot.L
			{
				OFFSET 0.015376 -0.293391 0.000000
				CHANNELS 6 Xposition Yposition Zposition Xrotation Yrotation Zrotation
				End Site
				{
					OFFSET 0.013618 -0.058304 0.138845
				}
			}
		}
	}
	JOINT thigh.R
	{
		OFFSET -0.090690 0.000000 0.000000
		CHANNELS 6 Xposition Yposition Zposition Xrotation Yrotation Zrotation
		JOINT shin.R
		{
			OFFSET -0.017084 -0.325982 0.000000
			CHANNELS 6 Xposition Yposition Zposition Xrotation Yrotation Zrotation
			JOINT foot.R
			{
				OFFSET -0.015190 -0.289837 0.000000
				CHANNELS 6 Xposition Yposition Zposition Xrotation Yrotation Zrotation
				End Site
				{
					OFFSET -0.013876 -0.059412 0.141485
				}
			}
		}
	}
}
MOTION
Frames: 7
Frame Time: 0.041667
0.099687 -0.012356 -0.039097 0.000000 25.559280 -0.000014 0.000000 -0.000000 0.000000 -3.420602 0.145412 -1.764569 10.041038 -6.177156 0.761428 0.000000 0.238635 -0.029301 17.279284 -3.942059 2.192455 0.000000 0.178173 -0.003110 -3.018550 -0.000005 0.000005 -0.000000 0.238636 -0.029301 0.354867 -0.008953 2.891536 0.144247 0.000000 -0.000000 -2.648253 -3.560690 -72.925581 0.241736 0.000864 -0.000104 -0.179569 -24.971850 -0.204825 -0.000000 0.238636 -0.029301 0.348312 -0.008630 2.838130 -0.144247 0.000000 0.000000 -2.697118 3.278869 78.441929 -0.240681 0.000864 -0.000104 -3.495350 27.165464 14.732259 0.000000 -0.000000 -0.000000 0.000010 -0.000001 -2.587477 0.000000 -0.000000 -0.000000 -0.000002 -0.000000 -2.587479 0.090598 -0.004094 -0.000000 6.151423 0.006266 -5.883484 0.016922 -0.322884 0.000000 1.021132 0.019693 -3.789230 0.015376 -0.293391 0.000000 -3.750190 3.549417 1.996299 -0.090598 0.004094 -0.000000 -6.132302 0.369609 -0.891708 -0.017084 -0.325982 0.000000 1.598492 -0.089019 -0.374169 -0.015190 -0.289837 0.000000 -0.862457 -15.905026 -6.846679 
0.097640 -0.011560 -0.044051 0.000002 22.125920 -0.000010 0.000000 0.000000 0.000000 -3.084977 0.161962 -2.038286 10.026141 -4.936827 0.607676 0.000000 0.238635 -0.029301 16.165393 -4.398384 1.834376 -0.000000 0.178174 -0.003110 -1.984119 0.000017 0.000001 -0.000000 0.238635 -0.029301 0.329682 -0.007734 2.686658 0.144247 0.000000 0.000000 -5.646999 -7.744404 -72.223452 0.241736 0.000864 -0.000104 0.050522 -24.553634 0.922177 -0.000000 0.238635 -0.029301 0.323164 -0.007426 2.633203 -0.144246 0.000000 0.000000 -3.498681 4.254522 78.616686 -0.240681 0.000864 -0.000104 -3.084302 25.950308 13.644330 0.000000 0.000000 0.000000 0.000015 0.000001 -2.661287 0.000000 -0.000000 0.000000 -0.000002 -0.000000 -2.661288 0.090593 -0.004211 0.000000 5.981222 -0.016576 -6.317056 0.016922 -0.322884 0.000000 0.685454 0.013367 -3.766289 0.015376 -0.293391 0.000000 -3.405031 5.955000 3.035770 -0.090592 0.004211 -0.000000 -6.555047 0.322450 0.373752 -0.017084 -0.325982 0.000000 1.378978 -0.082763 -0.868447 -0.015190 -0.289837 0.000000 -0.642655 -14.576577 -6.229730 
0.096100 -0.010925 -0.048588 0.000000 18.604696 -0.000007 -0.000000 0.000000 0.000000 -2.865317 0.178388 -2.300938 10.015451 -3.794022 0.466546 -0.000000 0.238635 -0.029301 15.117283 -4.163686 1.590070 -0.000000 0.178174 -0.003110 -0.934883 0.000002 0.000001 -0.000000 0.238635 -0.029301 0.295182 -0.006192 2.405247 0.144247 0.000000 -0.000000 -8.146154 -11.285662 -71.735803 0.241736 0.000864 -0.000104 0.179829 -24.221999 1.578942 -0.000000 0.238636 -0.029301 0.288647 -0.005920 2.351838 -0.144247 0.000000 -0.000000 -4.491628 5.443055 78.948695 -0.240681 0.000864 -0.000104 -2.633632 24.460273 12.397448 -0.000000 0.000000 -0.000000 0.000048 0.000001 -2.557774 -0.000000 0.000000 -0.000000 0.000002 0.000000 -2.557739 0.090600 -0.004047 0.000000 5.815291 -0.042019 -6.827220 0.016922 -0.322884 0.000000 0.194067 0.004171 -3.531928 0.015376 -0.293391 0.000000 -2.921557 8.353251 4.026519 -0.090600 0.004047 -0.000000 -7.016524 0.282394 1.396401 -0.017084 -0.325982 0.000000 1.230381 -0.078158 -1.267626 -0.015190 -0.289837 0.000000 -0.048393 -13.147826 -5.490331 
0.095363 -0.010066 -0.051714 0.000001 15.488274 -0.000007 0.000000 -0.000000 0.000000 -2.925948 0.201376 -2.579435 10.009848 -3.021012 0.371293 0.000000 0.238635 -0.029301 14.686222 -3.553415 1.633636 0.000000 0.178173 -0.003110 -0.078989 -0.000003 -0.000003 -0.000000 0.238636 -0.029301 0.274545 -0.005362 2.236698 0.144247 0.000000 -0.000000 -9.699602 -13.341000 -72.133956 0.241736 0.000864 -0.000104 0.375676 -24.701545 2.524099 -0.000000 0.238636 -0.029301 0.268038 -0.005106 2.183284 -0.144246 -0.000000 -0.000000 -5.289495 6.394917 79.151353 -0.240681 0.000864 -0.000104 -2.341724 23.424282 11.530493 0.000000 0.000000 0.000000 0.000034 0.000000 -2.411759 0.000000 0.000000 0.000000 0.000002 0.000000 -2.411760 0.090610 -0.003816 0.000000 5.833154 -0.064253 -7.261023 0.016922 -0.322884 0.000000 -0.609621 -0.014708 -3.238542 0.015376 -0.293391 0.000000 -2.423373 10.413770 4.840436 -0.090610 0.003816 -0.000000 -7.199410 0.246468 2.083881 -0.017084 -0.325982 0.000000 1.111663 -0.073212 -1.536113 -0.015190 -0.289837 0.000000 0.514238 -12.004703 -4.892314 
0.094933 -0.008820 -0.053225 0.000001 12.984294 -0.000007 -0.000000 -0.000000 0.000000 -3.218749 0.231637 -2.872521 10.008578 -2.835800 0.348471 -0.000000 0.238635 -0.029301 14.924774 -3.179493 1.822937 0.000000 0.178174 -0.003110 0.752116 -0.000005 0.000005 -0.000000 0.238636 -0.029301 0.268349 -0.005125 2.186398 0.144247 0.000000 -0.000000 -10.879978 -14.646070 -73.309254 0.241736 0.000864 -0.000104 0.725873 -25.187870 4.172236 -0.000000 0.238636 -0.029301 0.261795 -0.004877 2.132989 -0.144246 0.000000 -0.000000 -5.858130 7.079421 79.213378 -0.240681 0.000864 -0.000104 -2.198377 22.715730 11.186013 -0.000000 0.000000 0.000000 0.000001 0.000000 -2.263188 0.000000 0.000000 0.000000 -0.000001 -0.000000 -2.263152 0.090620 -0.003581 -0.000000 6.042988 -0.082604 -7.564730 0.016922 -0.322884 0.000000 -1.538920 -0.040694 -2.970161 0.015376 -0.293391 0.000000 -2.083865 12.029075 5.474885 -0.090620 0.003581 -0.000000 -6.963360 0.214767 2.471167 -0.017084 -0.325982 0.000000 1.032149 -0.069034 -1.652218 -0.015190 -0.289837 0.000000 0.447938 -11.316480 -4.624120 
0.094337 -0.007442 -0.053577 0.000001 11.035870 -0.000006 0.000000 -0.000000 0.000000 -3.594114 0.262956 -3.132782 10.010937 -3.195585 0.392772 0.000000 0.238635 -0.029301 15.443338 -3.298274 1.897695 0.000000 0.178174 -0.003110 1.774630 -0.000001 -0.000002 -0.000000 0.238636 -0.029301 0.260602 -0.004830 2.123148 0.144247 0.000000 0.000000 -12.186159 -16.040781 -74.539186 0.241736 0.000864 -0.000104 1.009017 -25.191100 5.536410 -0.000000 0.238636 -0.029301 0.254054 -0.004583 2.069690 -0.144247 -0.000000 -0.000000 -6.417426 7.755855 79.239026 -0.240681 0.000864 -0.000104 -2.100506 21.753975 11.220590 0.000000 0.000000 -0.000000 0.000026 0.000001 -2.051747 0.000000 0.000000 -0.000000 0.000000 -0.000000 -2.051786 0.090632 -0.003247 0.000000 6.350757 -0.099861 -7.799809 0.016922 -0.322884 0.000000 -2.341900 -0.067224 -2.712256 0.015376 -0.293391 0.000000 -1.982441 13.150187 5.939969 -0.090632 0.003247 -0.000000 -6.332078 0.188377 2.595451 -0.017084 -0.325982 0.000000 0.939792 -0.061518 -1.489877 -0.015190 -0.289837 0.000000 -0.488608 -11.037127 -4.705367 
0.093407 -0.006365 -0.053627 -0.000000 9.292845 -0.000006 0.000000 -0.000000 0.000000 -3.955914 0.290078 -3.329565 10.014517 -3.678761 0.452321 0.000000 0.238635 -0.029301 15.854778 -3.974731 1.828401 -0.000000 0.178174 -0.003110 2.785150 -0.000003 0.000000 0.000000 0.238635 -0.029301 0.245117 -0.004269 1.997123 0.144247 0.000000 0.000000 -13.657147 -17.624448 -75.627434 0.241736 0.000864 -0.000104 1.032504 -24.683612 5.765607 -0.000000 0.238635 -0.029301 0.238595 -0.004045 1.943710 -0.144247 0.000000 -0.000000 -6.897915 8.331897 79.291557 -0.240681 0.000864 -0.000104 -2.020914 20.867184 11.316617 0.000000 -0.000000 0.000000 -0.000070 -0.000001 -1.758540 -0.000000 0.000000 0.000000 0.000002 0.000000 -1.758504 0.090648 -0.002783 -0.000000 6.642000 -0.118636 -8.044240 0.016922 -0.322884 0.000000 -2.926206 -0.090980 -2.439410 0.015376 -0.293391 0.000000 -2.128652 13.896647 6.299915 -0.090648 0.002783 -0.000000 -5.489395 0.167494 2.507323 -0.017084 -0.325982 0.000000 0.680029 -0.041560 -0.994537 -0.015190 -0.289837 0.000000 -1.689996 -10.886736 -4.893724 
